<svg width="100%" viewBox="0 0 680 240" role="img" xmlns="http://www.w3.org/2000/svg">
  <title>Jenna Frank — Welcome to my GitHub</title>
  <desc>Warm, whimsical, feminine-techy banner with ASCII border, retro 80s grid, coral and mint palette, and pixel lettering.</desc>

  <defs>
    <clipPath id="wc">
      <rect x="0" y="0" width="680" height="240" rx="10"/>
    </clipPath>
    <linearGradient id="bggrad" x1="0" y1="0" x2="1" y2="1">
      <stop offset="0%" stop-color="#1A0A14"/>
      <stop offset="100%" stop-color="#0F0A1A"/>
    </linearGradient>
    <linearGradient id="coralLine" x1="0" y1="0" x2="1" y2="0">
      <stop offset="0%" stop-color="#FF6B9D" stop-opacity="0"/>
      <stop offset="50%" stop-color="#FF6B9D" stop-opacity="0.7"/>
      <stop offset="100%" stop-color="#FF6B9D" stop-opacity="0"/>
    </linearGradient>
    <linearGradient id="mintLine" x1="0" y1="0" x2="1" y2="0">
      <stop offset="0%" stop-color="#7FFFD4" stop-opacity="0"/>
      <stop offset="50%" stop-color="#7FFFD4" stop-opacity="0.6"/>
      <stop offset="100%" stop-color="#7FFFD4" stop-opacity="0"/>
    </linearGradient>
    <linearGradient id="coralStreak" x1="0" y1="0" x2="1" y2="0">
      <stop offset="0%" stop-color="#FF6B9D" stop-opacity="0"/>
      <stop offset="45%" stop-color="#FF6B9D" stop-opacity="0"/>
      <stop offset="50%" stop-color="#FFB3D1" stop-opacity="0.9"/>
      <stop offset="55%" stop-color="#FF6B9D" stop-opacity="0"/>
      <stop offset="100%" stop-color="#FF6B9D" stop-opacity="0"/>
    </linearGradient>
    <linearGradient id="mintStreak" x1="0" y1="0" x2="1" y2="0">
      <stop offset="0%" stop-color="#7FFFD4" stop-opacity="0"/>
      <stop offset="45%" stop-color="#7FFFD4" stop-opacity="0"/>
      <stop offset="50%" stop-color="#B0FFF0" stop-opacity="0.8"/>
      <stop offset="55%" stop-color="#7FFFD4" stop-opacity="0"/>
      <stop offset="100%" stop-color="#7FFFD4" stop-opacity="0"/>
    </linearGradient>
  </defs>

  <rect x="0" y="0" width="680" height="240" fill="url(#bggrad)" clip-path="url(#wc)"/>

  <g clip-path="url(#wc)" opacity="0.12">
    <g fill="#FF6B9D">
      <circle cx="40" cy="40" r="1"/><circle cx="80" cy="40" r="1"/><circle cx="120" cy="40" r="1"/><circle cx="160" cy="40" r="1"/><circle cx="200" cy="40" r="1"/><circle cx="240" cy="40" r="1"/><circle cx="280" cy="40" r="1"/><circle cx="320" cy="40" r="1"/><circle cx="360" cy="40" r="1"/><circle cx="400" cy="40" r="1"/><circle cx="440" cy="40" r="1"/><circle cx="480" cy="40" r="1"/><circle cx="520" cy="40" r="1"/><circle cx="560" cy="40" r="1"/><circle cx="600" cy="40" r="1"/><circle cx="640" cy="40" r="1"/>
      <circle cx="40" cy="80" r="1"/><circle cx="80" cy="80" r="1"/><circle cx="120" cy="80" r="1"/><circle cx="160" cy="80" r="1"/><circle cx="200" cy="80" r="1"/><circle cx="240" cy="80" r="1"/><circle cx="280" cy="80" r="1"/><circle cx="320" cy="80" r="1"/><circle cx="360" cy="80" r="1"/><circle cx="400" cy="80" r="1"/><circle cx="440" cy="80" r="1"/><circle cx="480" cy="80" r="1"/><circle cx="520" cy="80" r="1"/><circle cx="560" cy="80" r="1"/><circle cx="600" cy="80" r="1"/><circle cx="640" cy="80" r="1"/>
      <circle cx="40" cy="120" r="1"/><circle cx="80" cy="120" r="1"/><circle cx="120" cy="120" r="1"/><circle cx="160" cy="120" r="1"/><circle cx="200" cy="120" r="1"/><circle cx="240" cy="120" r="1"/><circle cx="280" cy="120" r="1"/><circle cx="320" cy="120" r="1"/><circle cx="360" cy="120" r="1"/><circle cx="400" cy="120" r="1"/><circle cx="440" cy="120" r="1"/><circle cx="480" cy="120" r="1"/><circle cx="520" cy="120" r="1"/><circle cx="560" cy="120" r="1"/><circle cx="600" cy="120" r="1"/><circle cx="640" cy="120" r="1"/>
      <circle cx="40" cy="160" r="1"/><circle cx="80" cy="160" r="1"/><circle cx="120" cy="160" r="1"/><circle cx="160" cy="160" r="1"/><circle cx="200" cy="160" r="1"/><circle cx="240" cy="160" r="1"/><circle cx="280" cy="160" r="1"/><circle cx="320" cy="160" r="1"/><circle cx="360" cy="160" r="1"/><circle cx="400" cy="160" r="1"/><circle cx="440" cy="160" r="1"/><circle cx="480" cy="160" r="1"/><circle cx="520" cy="160" r="1"/><circle cx="560" cy="160" r="1"/><circle cx="600" cy="160" r="1"/><circle cx="640" cy="160" r="1"/>
      <circle cx="40" cy="200" r="1"/><circle cx="80" cy="200" r="1"/><circle cx="120" cy="200" r="1"/><circle cx="160" cy="200" r="1"/><circle cx="200" cy="200" r="1"/><circle cx="240" cy="200" r="1"/><circle cx="280" cy="200" r="1"/><circle cx="320" cy="200" r="1"/><circle cx="360" cy="200" r="1"/><circle cx="400" cy="200" r="1"/><circle cx="440" cy="200" r="1"/><circle cx="480" cy="200" r="1"/><circle cx="520" cy="200" r="1"/><circle cx="560" cy="200" r="1"/><circle cx="600" cy="200" r="1"/><circle cx="640" cy="200" r="1"/>
    </g>
  </g>

  <text x="20" y="20" font-family="'Courier New', monospace" font-size="11" fill="#FF6B9D" opacity="0.7">+------------------------------------------------------------------+</text>
  <text x="20" y="232" font-family="'Courier New', monospace" font-size="11" fill="#7FFFD4" opacity="0.7">+------------------------------------------------------------------+</text>
  <text x="20" y="38" font-family="'Courier New', monospace" font-size="11" fill="#FF6B9D" opacity="0.4">|</text>
  <text x="20" y="56" font-family="'Courier New', monospace" font-size="11" fill="#FF6B9D" opacity="0.35">|</text>
  <text x="20" y="74" font-family="'Courier New', monospace" font-size="11" fill="#FF6B9D" opacity="0.3">|</text>
  <text x="20" y="92" font-family="'Courier New', monospace" font-size="11" fill="#FF6B9D" opacity="0.3">|</text>
  <text x="20" y="110" font-family="'Courier New', monospace" font-size="11" fill="#FF6B9D" opacity="0.3">|</text>
  <text x="20" y="128" font-family="'Courier New', monospace" font-size="11" fill="#FF6B9D" opacity="0.3">|</text>
  <text x="20" y="146" font-family="'Courier New', monospace" font-size="11" fill="#7FFFD4" opacity="0.3">|</text>
  <text x="20" y="164" font-family="'Courier New', monospace" font-size="11" fill="#7FFFD4" opacity="0.3">|</text>
  <text x="20" y="182" font-family="'Courier New', monospace" font-size="11" fill="#7FFFD4" opacity="0.35">|</text>
  <text x="20" y="200" font-family="'Courier New', monospace" font-size="11" fill="#7FFFD4" opacity="0.4">|</text>
  <text x="20" y="218" font-family="'Courier New', monospace" font-size="11" fill="#7FFFD4" opacity="0.45">|</text>
  <text x="658" y="38" font-family="'Courier New', monospace" font-size="11" fill="#FF6B9D" opacity="0.4">|</text>
  <text x="658" y="56" font-family="'Courier New', monospace" font-size="11" fill="#FF6B9D" opacity="0.35">|</text>
  <text x="658" y="74" font-family="'Courier New', monospace" font-size="11" fill="#FF6B9D" opacity="0.3">|</text>
  <text x="658" y="92" font-family="'Courier New', monospace" font-size="11" fill="#FF6B9D" opacity="0.3">|</text>
  <text x="658" y="110" font-family="'Courier New', monospace" font-size="11" fill="#FF6B9D" opacity="0.3">|</text>
  <text x="658" y="128" font-family="'Courier New', monospace" font-size="11" fill="#FF6B9D" opacity="0.3">|</text>
  <text x="658" y="146" font-family="'Courier New', monospace" font-size="11" fill="#7FFFD4" opacity="0.3">|</text>
  <text x="658" y="164" font-family="'Courier New', monospace" font-size="11" fill="#7FFFD4" opacity="0.3">|</text>
  <text x="658" y="182" font-family="'Courier New', monospace" font-size="11" fill="#7FFFD4" opacity="0.35">|</text>
  <text x="658" y="200" font-family="'Courier New', monospace" font-size="11" fill="#7FFFD4" opacity="0.4">|</text>
  <text x="658" y="218" font-family="'Courier New', monospace" font-size="11" fill="#7FFFD4" opacity="0.45">|</text>

  <rect x="-200" y="19" width="250" height="1" fill="url(#coralStreak)" clip-path="url(#wc)">
    <animate attributeName="x" values="-200;680" dur="3s" repeatCount="indefinite"/>
  </rect>
  <rect x="880" y="231" width="250" height="1" fill="url(#mintStreak)" clip-path="url(#wc)">
    <animate attributeName="x" values="880;-250" dur="3.6s" repeatCount="indefinite"/>
  </rect>

  <text x="36" y="36" font-family="'Courier New', monospace" font-size="10" fill="#FF6B9D" opacity="0.55">* . . ~ * . . * ~ . .</text>
  <text x="430" y="36" font-family="'Courier New', monospace" font-size="10" fill="#7FFFD4" opacity="0.5">. * ~ . . * . ~ . . *</text>
  <text x="36" y="220" font-family="'Courier New', monospace" font-size="10" fill="#7FFFD4" opacity="0.5">{ access: granted }</text>
  <text x="460" y="220" font-family="'Courier New', monospace" font-size="10" fill="#FF6B9D" opacity="0.5">[ v.jf-2026 ]</text>

  <text x="340" y="58" text-anchor="middle"
    font-family="'Courier New', Courier, monospace"
    font-size="12"
    letter-spacing="4"
    fill="#FF6B9D"
    opacity="0.9">* * *  WELCOME TO MY GITHUB  * * *</text>

  <rect x="80" y="64" width="520" height="1" fill="url(#coralLine)" opacity="0.6"/>

  <g fill="#FFE4F0" opacity="0.97">
    <rect x="204" y="78" width="7" height="7"/><rect x="204" y="87" width="7" height="7"/>
    <rect x="204" y="96" width="7" height="7"/><rect x="195" y="105" width="7" height="7"/>
    <rect x="204" y="105" width="7" height="7"/><rect x="199" y="114" width="7" height="7"/>
    <rect x="218" y="78" width="20" height="7"/><rect x="218" y="87" width="7" height="7"/>
    <rect x="218" y="96" width="16" height="7"/><rect x="218" y="105" width="7" height="7"/>
    <rect x="218" y="114" width="20" height="7"/>
    <rect x="244" y="78" width="7" height="43"/><rect x="263" y="78" width="7" height="43"/>
    <rect x="251" y="87" width="7" height="7"/><rect x="257" y="96" width="7" height="7"/>
    <rect x="277" y="78" width="7" height="43"/><rect x="296" y="78" width="7" height="43"/>
    <rect x="284" y="87" width="7" height="7"/><rect x="290" y="96" width="7" height="7"/>
    <rect x="319" y="78" width="7" height="7"/>
    <rect x="310" y="87" width="7" height="7"/><rect x="328" y="87" width="7" height="7"/>
    <rect x="310" y="96" width="25" height="7"/>
    <rect x="310" y="105" width="7" height="7"/><rect x="328" y="105" width="7" height="7"/>
    <rect x="310" y="114" width="7" height="7"/><rect x="328" y="114" width="7" height="7"/>
    <rect x="352" y="78" width="22" height="7"/><rect x="352" y="87" width="7" height="7"/>
    <rect x="352" y="96" width="18" height="7"/><rect x="352" y="105" width="7" height="7"/>
    <rect x="352" y="114" width="7" height="7"/>
    <rect x="381" y="78" width="7" height="43"/>
    <rect x="388" y="78" width="13" height="7"/><rect x="401" y="87" width="7" height="7"/>
    <rect x="388" y="96" width="13" height="7"/>
    <rect x="397" y="105" width="7" height="7"/><rect x="404" y="114" width="7" height="7"/>
    <rect x="425" y="78" width="7" height="7"/>
    <rect x="416" y="87" width="7" height="7"/><rect x="434" y="87" width="7" height="7"/>
    <rect x="416" y="96" width="25" height="7"/>
    <rect x="416" y="105" width="7" height="7"/><rect x="434" y="105" width="7" height="7"/>
    <rect x="416" y="114" width="7" height="7"/><rect x="434" y="114" width="7" height="7"/>
    <rect x="448" y="78" width="7" height="43"/><rect x="467" y="78" width="7" height="43"/>
    <rect x="455" y="87" width="7" height="7"/><rect x="461" y="96" width="7" height="7"/>
    <rect x="481" y="78" width="7" height="43"/>
    <rect x="488" y="87" width="7" height="7"/>
    <rect x="495" y="78" width="7" height="7"/><rect x="495" y="96" width="7" height="7"/>
    <rect x="502" y="105" width="7" height="7"/><rect x="495" y="112" width="7" height="7"/>
    <rect x="502" y="119" width="7" height="7"/>
  </g>

  <g fill="#7FFFD4" opacity="0.25">
    <rect x="218" y="78" width="20" height="7"/>
    <rect x="218" y="96" width="16" height="7"/>
    <rect x="310" y="96" width="25" height="7"/>
    <rect x="416" y="96" width="25" height="7"/>
    <rect x="352" y="78" width="22" height="7"/>
  </g>

  <rect x="190" y="78" width="10" height="43" fill="#FF6B9D" opacity="0" clip-path="url(#wc)">
    <animate attributeName="x" values="190;515;190" dur="3.2s" repeatCount="indefinite" calcMode="ease-in-out"/>
    <animate attributeName="opacity" values="0;0.15;0" dur="3.2s" repeatCount="indefinite" calcMode="ease-in-out"/>
  </rect>

  <rect x="512" y="78" width="8" height="43" rx="1" fill="#FF6B9D" opacity="0.7">
    <animate attributeName="opacity" values="0.7;0;0.7" dur="1.1s" repeatCount="indefinite"/>
  </rect>

  <rect x="80" y="130" width="520" height="1" fill="url(#mintLine)" opacity="0.7"/>

  <text x="340" y="153"
    text-anchor="middle"
    font-family="'Courier New', Courier, monospace"
    font-size="12"
    letter-spacing="6"
    fill="#7FFFD4"
    opacity="0.9">CYBERSECURITY</text>

  <circle r="2" fill="#7FFFD4" opacity="0.8">
    <animateMotion dur="4s" repeatCount="indefinite">
      <mpath href="#subpath"/>
    </animateMotion>
  </circle>
  <path id="subpath" d="M80,131 L600,131" fill="none" stroke="none"/>

  <circle r="1.5" fill="#FF6B9D" opacity="0.7">
    <animateMotion dur="4s" repeatCount="indefinite" begin="2s">
      <mpath href="#subpath2"/>
    </animateMotion>
  </circle>
  <path id="subpath2" d="M600,131 L80,131" fill="none" stroke="none"/>

  <text x="340" y="182"
    text-anchor="middle"
    font-family="'Courier New', Courier, monospace"
    font-size="11"
    letter-spacing="3"
    fill="#FF6B9D"
    opacity="0.6">// welcome to my projects</text>

  <text x="42" y="108" font-family="'Courier New', monospace" font-size="14" fill="#FF6B9D" opacity="0.4">&lt;/&gt;</text>
  <text x="624" y="108" font-family="'Courier New', monospace" font-size="14" fill="#7FFFD4" opacity="0.4">{}</text>

</svg>
